<svg xmlns="http://www.w3.org/2000/svg" viewBox="0 0 100 100" preserveAspectRatio=""><defs><clipPath id="a__iDk0JHkT"><path d="M.031 0h100v100h-100z"></path></clipPath></defs><g clip-path="url(#a__iDk0JHkT)"><path class="cls-1" fill-rule="evenodd" fill="#449eff" d="M2.011 9.977h41.005a2 2 0 012 2v31.008a2 2 0 01-2 2H2.011a2 2 0 01-2-2V11.977a2 2 0 012-2zm8 10h25.01v15.01H10.008V19.975zm47.038-10h41.002a2 2 0 012 2v31.008a2 2 0 01-2 2H57.046a2 2 0 01-2-2V11.977a2 2 0 012-2zm8 10h25.01v15.01H65.044V19.975zM2.011 55.015h41.005a2 2 0 012 2v31.008a2 2 0 01-2 2H2.011a2 2 0 01-2-2V57.015a2 2 0 012-2zm8 10h25.01v15.01H10.008V65.013zm47.038-10h41.002a2 2 0 012 2v31.008a2 2 0 01-2 2H57.046a2 2 0 01-2-2V57.015a2 2 0 012-2zm8 10h25.01v15.01H65.044V65.013z"></path></g></svg>