<svg xmlns="http://www.w3.org/2000/svg" fill='#e63f6d' viewBox="0 0 131 35"><path d="m43.5 11.5-3.9 15.4c-.3 1.2-1 2.3-2.2 3.2-1.1.9-2.3 1.3-3.6 1.3l5-19.8h-6.2l-.6 3-5 19.8h6c2.9 0 5.7-1.1 8.4-3.3 2.6-2.2 4.3-4.7 5-7.7l2.2-8.9.8-3z"/><path d="M54.5 29.1c0-.1 0-.1.1-.2 0-.1.1-.1.1-.2L59 11.5H49l-.8 3h4l-3.6 14.2c-.1.1-.1.3-.1.5-.3 1.6.1 2.8 1.2 3.7 1 .9 2.6 1.4 4.7 1.4h.9l.8-3c-1.3-.2-1.8-1-1.6-2.2zm5.7-27c-.5-.6-1.2-.9-2-.9s-1.6.3-2.3.9-1.1 1.3-1.2 2.2 0 1.6.5 2.2 1.2.9 2 .9 1.6-.3 2.3-.9 1.1-1.3 1.3-2.2c.1-.9-.1-1.6-.6-2.2zm16.5 27.5c0-.1 0-.1.1-.2 0-.1 0-.1.1-.2l4.4-17.8H70.9c-2.2 0-4.2.6-6 1.8-1.9 1.2-3 2.7-3.5 4.6l-2.5 10.1c-.1.2-.1.3-.1.6-.3 1.7.2 3.1 1.5 4.1 1.3 1.1 2.9 1.6 4.9 1.6h.9c1.8 0 3.4-.6 4.9-1.8.8 1.2 2.2 1.8 4.3 1.8h2.1l.8-3c-1.2 0-1.7-.6-1.5-1.6zm-5.6-1.7c-.2.9-.8 1.7-1.6 2.4s-1.7 1-2.6 1c-1.7 0-2.5-.8-2.2-2.5 0 0 0-.1.1-.2 0-.1.1-.2.1-.3l2.9-11.5c.4-1.5 1.2-2.2 2.5-2.2h4.3zm39.4-14.8c-1.2-1.1-2.9-1.6-4.9-1.6h-.9c-2.2 0-4.2.6-6.1 1.8-1.8 1.2-3 2.7-3.4 4.5l-2.6 10.1c-.1.2-.1.3-.1.6-.3 1.7.2 3.1 1.5 4.2s2.9 1.6 5 1.6h.9c2.2 0 4.2-.6 6.1-1.9 1.9-1.2 3-2.7 3.4-4.5l2.5-10.1.1-.6c.2-1.6-.3-3-1.5-4.1zm-4.6 4.2-.1.5-2.5 10.1c-.3 1.1-.7 1.9-1.3 2.5s-1.2.9-1.9.9c-.6 0-1.1-.3-1.4-.8s-.4-1.2-.3-2.1c0-.1 0-.1.1-.2 0-.1.1-.2.1-.2l2.5-10.1c.3-1 .7-1.8 1.2-2.4.6-.6 1.2-.9 1.9-.9.6 0 1.1.2 1.4.7.3.4.4 1.1.3 2zm23.1-5.8c-2.4 0-4.5.6-6.3 1.9l.5-1.9h-6l-5.7 22.8h6l3.1-12.5c.4-1.5 1.2-3 2.3-4.3 1.2-1.3 2.5-2.3 3.9-2.8l-.7 3h3.3l1.6-6.2zM27.9 2.9c-1.4-1.1-3.2-1.7-5.6-1.7-2.5 0-4.8.6-6.7 1.9s-3.2 3-3.7 5.1l-2.5 9.9H3.8C1.7 18.1 0 19.8 0 22h8.5L5.4 34.3h6l3-12.3h5.4l-1.9 7.6c-.1.1-.1.3-.1.6-.2 1.3 0 2.3.8 3 .7.7 1.8 1.1 3.3 1.1h2.4l.8-3c-.9-.1-1.2-.5-1.1-1.4l5.4-21.7c0-.1 0-.2.1-.4 0-.2.1-.3.1-.4.2-1.9-.3-3.4-1.7-4.5zM15.4 18.1l2.8-10.8c.2-.9.6-1.6 1.3-2.2.6-.6 1.4-.9 2.2-.9s1.3.3 1.7.8.5 1.2.4 1.9l-.1.4-2.8 10.8v.1h-5.5zm77-6.6 1.4-5.3h-6l-1.3 5.3h-3l-.8 3h3l-3.6 14.2c0 .1 0 .2-.1.3 0 .2-.1.3-.1.3-.3 1.5 0 2.7.9 3.6.8.9 2.1 1.3 3.8 1.3h2.1l.8-3.1c-1.2-.1-1.8-.8-1.5-2.1 0-.1 0-.1.1-.2 0-.1 0-.1.1-.2l3.6-14.2h2.6l.8-3h-2.8z"/></svg>