<svg xmlns="http://www.w3.org/2000/svg" width="206" height="114"><defs><filter id="a" width="228" height="136" x="-11" y="-11" filterUnits="userSpaceOnUse"><feOffset in="SourceGraphic" result="FeOffset1058Out"/><feGaussianBlur in="FeOffset1058Out" result="FeGaussianBlur1059Out" stdDeviation="1.6 1.6"/></filter><mask id="b" width="2" height="2" x="-1" y="-1"><path fill="#fff" d="M3 3h200v108H3z"/><path d="M201 13c0-4.411-3.589-8-8-8h-52a1 1 0 110-2h52c5.5 0 10 4.5 10 10v88c0 5.5-4.5 10-10 10h-28v-2h28c4.411 0 8-3.59 8-8zM13 111c-5.5 0-10-4.5-10-10V13C3 7.5 7.5 3 13 3h53a1 1 0 110 2H13c-4.411 0-8 3.59-8 8v88c0 4.411 3.589 8 8 8h28v2H13zm0-6c-2.168 0-4-1.832-4-4V13c0-2.168 1.832-4 4-4h56a1 1 0 010 2H13c-1.065 0-2 .935-2 2v88c0 1.065.935 2 2 2h28v2zm180-2c1.065 0 2-.935 2-2V13c0-1.065-.935-2-2-2h-55a1 1 0 110-2h55c2.169 0 4 1.832 4 4v88c0 2.168-1.831 4-4 4h-28v-2z"/></mask></defs><g filter="url(#a)"><path fill="none" d="M201 13c0-4.411-3.589-8-8-8h-52a1 1 0 110-2h52c5.5 0 10 4.5 10 10v88c0 5.5-4.5 10-10 10h-28v-2h28c4.411 0 8-3.59 8-8zM13 111c-5.5 0-10-4.5-10-10V13C3 7.5 7.5 3 13 3h53a1 1 0 110 2H13c-4.411 0-8 3.59-8 8v88c0 4.411 3.589 8 8 8h28v2H13zm0-6c-2.168 0-4-1.832-4-4V13c0-2.168 1.832-4 4-4h56a1 1 0 010 2H13c-1.065 0-2 .935-2 2v88c0 1.065.935 2 2 2h28v2zm180-2c1.065 0 2-.935 2-2V13c0-1.065-.935-2-2-2h-55a1 1 0 110-2h55c2.169 0 4 1.832 4 4v88c0 2.168-1.831 4-4 4h-28v-2z" mask="url(&quot;#b&quot;)"/><path fill="#ffba00" fill-opacity=".6" d="M201 13c0-4.411-3.589-8-8-8h-52a1 1 0 110-2h52c5.5 0 10 4.5 10 10v88c0 5.5-4.5 10-10 10h-28v-2h28c4.411 0 8-3.59 8-8zM13 111c-5.5 0-10-4.5-10-10V13C3 7.5 7.5 3 13 3h53a1 1 0 110 2H13c-4.411 0-8 3.59-8 8v88c0 4.411 3.589 8 8 8h28v2H13zm0-6c-2.168 0-4-1.832-4-4V13c0-2.168 1.832-4 4-4h56a1 1 0 010 2H13c-1.065 0-2 .935-2 2v88c0 1.065.935 2 2 2h28v2zm180-2c1.065 0 2-.935 2-2V13c0-1.065-.935-2-2-2h-55a1 1 0 110-2h55c2.169 0 4 1.832 4 4v88c0 2.168-1.831 4-4 4h-28v-2z"/></g><g filter="url(#a)"><path fill="none" d="M201 13c0-4.411-3.589-8-8-8h-52a1 1 0 110-2h52c5.5 0 10 4.5 10 10v88c0 5.5-4.5 10-10 10h-28v-2h28c4.411 0 8-3.59 8-8zM13 111c-5.5 0-10-4.5-10-10V13C3 7.5 7.5 3 13 3h53a1 1 0 110 2H13c-4.411 0-8 3.59-8 8v88c0 4.411 3.589 8 8 8h28v2H13zm0-6c-2.168 0-4-1.832-4-4V13c0-2.168 1.832-4 4-4h56a1 1 0 010 2H13c-1.065 0-2 .935-2 2v88c0 1.065.935 2 2 2h28v2zm180-2c1.065 0 2-.935 2-2V13c0-1.065-.935-2-2-2h-55a1 1 0 110-2h55c2.169 0 4 1.832 4 4v88c0 2.168-1.831 4-4 4h-28v-2z" mask="url(&quot;#b&quot;)"/><path fill="#ffba00" fill-opacity=".6" d="M201 13c0-4.411-3.589-8-8-8h-52a1 1 0 110-2h52c5.5 0 10 4.5 10 10v88c0 5.5-4.5 10-10 10h-28v-2h28c4.411 0 8-3.59 8-8zM13 111c-5.5 0-10-4.5-10-10V13C3 7.5 7.5 3 13 3h53a1 1 0 110 2H13c-4.411 0-8 3.59-8 8v88c0 4.411 3.589 8 8 8h28v2H13zm0-6c-2.168 0-4-1.832-4-4V13c0-2.168 1.832-4 4-4h56a1 1 0 010 2H13c-1.065 0-2 .935-2 2v88c0 1.065.935 2 2 2h28v2zm180-2c1.065 0 2-.935 2-2V13c0-1.065-.935-2-2-2h-55a1 1 0 110-2h55c2.169 0 4 1.832 4 4v88c0 2.168-1.831 4-4 4h-28v-2z"/></g><path fill="#ffba00" d="M201 13c0-4.411-3.589-8-8-8h-52a1 1 0 110-2h52c5.5 0 10 4.5 10 10v88c0 5.5-4.5 10-10 10h-28v-2h28c4.411 0 8-3.59 8-8zM13 111c-5.5 0-10-4.5-10-10V13C3 7.5 7.5 3 13 3h53a1 1 0 110 2H13c-4.411 0-8 3.59-8 8v88c0 4.411 3.589 8 8 8h28v2H13zm0-6c-2.168 0-4-1.832-4-4V13c0-2.168 1.832-4 4-4h56a1 1 0 010 2H13c-1.065 0-2 .935-2 2v88c0 1.065.935 2 2 2h28v2zm180-2c1.065 0 2-.935 2-2V13c0-1.065-.935-2-2-2h-55a1 1 0 110-2h55c2.169 0 4 1.832 4 4v88c0 2.168-1.831 4-4 4h-28v-2z"/></svg>