<svg xmlns="http://www.w3.org/2000/svg" viewBox="0 0 100 100" preserveAspectRatio=""><path class="cls-1" fill-rule="evenodd" fill="#6ebc20" d="M50 100.02a50.02 50.02 0 01-35.37-85.39 50.021 50.021 0 0170.74 70.74A49.687 49.687 0 0150 100.02zm-6.81-10.268a40.3 40.3 0 0013.62 0l6.948-20.81 21.935-.181a39.819 39.819 0 004.221-12.956L72.267 42.768l6.6-20.9a40.145 40.145 0 00-11.017-8.029L50 26.591 32.151 13.843a40.1 40.1 0 00-11.02 8.029l6.6 20.9-17.645 13.033a39.957 39.957 0 004.224 12.956l21.93.181zM68.3 85.93a40.891 40.891 0 0010.191-7.417l-7.735.057zm-46.8-7.417a40.872 40.872 0 0010.2 7.417l-2.457-7.36zm-7.428-46.82a40.468 40.468 0 00-3.91 12.007l6.249-4.619zM89.833 43.7a40.248 40.248 0 00-3.908-12.009l-2.333 7.39zM50 14.682l6.322-4.515a40.313 40.313 0 00-12.642 0zM36.206 69.145l-8.527-26.238L50 26.688l22.318 16.219L63.8 69.145H36.206zm20.547-9.685l4.178-12.851L50 38.668l-10.93 7.94 4.174 12.852h13.509z"></path></svg>