<svg xmlns="http://www.w3.org/2000/svg" class="Icon_icon__w6Pjo" viewBox="0 0 18 20"><path d="M16 6a3.001 3.001 0 0 0-2-2.83V8c0 .291-.025.576-.073.854A3.001 3.001 0 0 0 16 6zm2 0a5 5 0 0 1-5 5 5.001 5.001 0 0 1-3 1.9V14h2a3 3 0 0 1 3 3v1h2a1 1 0 1 1 0 2H1a1 1 0 1 1 0-2h2v-1a3 3 0 0 1 3-3h2v-1.1A5 5 0 0 1 5 11a5 5 0 0 1-1-9.9V1a1 1 0 0 1 1-1h8a1 1 0 0 1 1 1v.1c2.282.463 4 2.481 4 4.9zM2 6c0 1.333.87 2.463 2.073 2.854A5.032 5.032 0 0 1 4 8V3.17A3.001 3.001 0 0 0 2 6zm10-4H6v6a3 3 0 1 0 6 0zm1 15a1 1 0 0 0-1-1H6a1 1 0 0 0-1 1v1h8z" fill='#fff' /></svg>