<svg width="28" height="25" viewBox="0 0 28 25" fill="none" xmlns="http://www.w3.org/2000/svg">
<g clip-path="url(#clip0_534_796)">
<path d="M1.07692 5.15339H5.38462C5.38462 5.72463 5.61154 6.27247 6.01546 6.67639C6.41939 7.08032 6.96723 7.30724 7.53846 7.30724H9.69231C10.2635 7.30724 10.8114 7.08032 11.2153 6.67639C11.6192 6.27247 11.8462 5.72463 11.8462 5.15339H26.9231C27.2087 5.15339 27.4826 5.03993 27.6846 4.83797C27.8865 4.63601 28 4.36209 28 4.07647C28 3.79085 27.8865 3.51693 27.6846 3.31497C27.4826 3.11301 27.2087 2.99955 26.9231 2.99955H11.8462C11.8462 2.42831 11.6192 1.88047 11.2153 1.47655C10.8114 1.07263 10.2635 0.845703 9.69231 0.845703H7.53846C6.96723 0.845703 6.41939 1.07263 6.01546 1.47655C5.61154 1.88047 5.38462 2.42831 5.38462 2.99955H1.07692C0.791305 2.99955 0.517386 3.11301 0.315423 3.31497C0.113461 3.51693 0 3.79085 0 4.07647C0 4.36209 0.113461 4.63601 0.315423 4.83797C0.517386 5.03993 0.791305 5.15339 1.07692 5.15339ZM26.9231 11.6149H20.4615C20.4615 11.0437 20.2346 10.4959 19.8307 10.0919C19.4268 9.68801 18.8789 9.46109 18.3077 9.46109H16.1538C15.5826 9.46109 15.0348 9.68801 14.6308 10.0919C14.2269 10.4959 14 11.0437 14 11.6149H1.07692C0.791305 11.6149 0.517386 11.7284 0.315423 11.9304C0.113461 12.1323 0 12.4062 0 12.6919C0 12.9775 0.113461 13.2514 0.315423 13.4534C0.517386 13.6553 0.791305 13.7688 1.07692 13.7688H14C14 14.34 14.2269 14.8879 14.6308 15.2918C15.0348 15.6957 15.5826 15.9226 16.1538 15.9226H18.3077C18.8789 15.9226 19.4268 15.6957 19.8307 15.2918C20.2346 14.8879 20.4615 14.34 20.4615 13.7688H26.9231C27.2087 13.7688 27.4826 13.6553 27.6846 13.4534C27.8865 13.2514 28 12.9775 28 12.6919C28 12.4062 27.8865 12.1323 27.6846 11.9304C27.4826 11.7284 27.2087 11.6149 26.9231 11.6149ZM26.9231 20.2303H11.8462C11.8462 19.6591 11.6192 19.1112 11.2153 18.7073C10.8114 18.3034 10.2635 18.0765 9.69231 18.0765H7.53846C6.96723 18.0765 6.41939 18.3034 6.01546 18.7073C5.61154 19.1112 5.38462 19.6591 5.38462 20.2303H1.07692C0.791305 20.2303 0.517386 20.3438 0.315423 20.5457C0.113461 20.7477 0 21.0216 0 21.3072C0 21.5929 0.113461 21.8668 0.315423 22.0687C0.517386 22.2707 0.791305 22.3842 1.07692 22.3842H5.38462C5.38462 22.9554 5.61154 23.5032 6.01546 23.9072C6.41939 24.3111 6.96723 24.538 7.53846 24.538H9.69231C10.2635 24.538 10.8114 24.3111 11.2153 23.9072C11.6192 23.5032 11.8462 22.9554 11.8462 22.3842H26.9231C27.2087 22.3842 27.4826 22.2707 27.6846 22.0687C27.8865 21.8668 28 21.5929 28 21.3072C28 21.0216 27.8865 20.7477 27.6846 20.5457C27.4826 20.3438 27.2087 20.2303 26.9231 20.2303Z" fill='#1183d3'/>
<path d="M11.8458 0.845703H5.38428V7.30724H11.8458V0.845703Z" fill='#1183d3'/>
<path d="M20.4615 9.46289H14V15.9244H20.4615V9.46289Z" fill='#1183d3'/>
<path d="M11.8458 18.0781H5.38428V24.5397H11.8458V18.0781Z" fill='#1183d3'/>
</g>
<defs>
<clipPath id="clip0_534_796">
<rect width="28" height="23.6923" fill="white" transform="translate(0 0.845703)"/>
</clipPath>
</defs>
</svg>