<svg xmlns="http://www.w3.org/2000/svg" fill='#9ea7b2' viewBox="0 0 40 40"><path d="M20 40C8.954 40 0 31.046 0 20 0 12.078 4.618 5.253 11.297 2.014l-.281.486.845 1.46C6.014 6.933 2 12.99 2 20c0 9.941 8.059 18 18 18s18-8.059 18-18c0-7.009-4.015-13.067-9.862-16.04l.846-1.46-.281-.486C35.383 5.253 40 12.078 40 20c0 11.046-8.954 20-20 20zm16-20c0 8.836-7.163 16-16 16S4 28.836 4 20c0-6.27 3.615-11.682 8.866-14.306l3.014 5.201A9.95 9.95 0 0 1 20 10c1.47 0 2.862.325 4.12.895l3.014-5.201C32.385 8.318 36 13.73 36 20zm-3.423 6.107A13.9 13.9 0 0 0 33.952 21H29.95a9.922 9.922 0 0 1-.839 3.106zm-1 1.732-3.468-2.002a10.044 10.044 0 0 1-2.273 2.272l1.993 3.452a14.064 14.064 0 0 0 3.748-3.722zM21 33.949a13.853 13.853 0 0 0 5.1-1.384l-1.994-3.453A9.925 9.925 0 0 1 21 29.95zm-2 0v-4a9.926 9.926 0 0 1-3.106-.837l-2 3.464A13.903 13.903 0 0 0 19 33.95zm-6.838-2.373 2.002-3.467a10.044 10.044 0 0 1-2.273-2.272L8.44 27.83a14.064 14.064 0 0 0 3.723 3.746zM7.434 26.1l3.455-1.994A9.918 9.918 0 0 1 10.05 21H6.048a13.85 13.85 0 0 0 1.386 5.1zM6.048 19h4.003a9.911 9.911 0 0 1 .838-3.106l-3.466-2A13.9 13.9 0 0 0 6.048 19zm6.123-10.56a14.068 14.068 0 0 0-3.748 3.721l3.468 2.003a10.043 10.043 0 0 1 2.273-2.273zM20 12a8 8 0 1 0 0 16 8 8 0 0 0 0-16zm7.838-3.576-2.002 3.467a10.046 10.046 0 0 1 2.273 2.273l3.452-1.993a14.065 14.065 0 0 0-3.723-3.747zm1.273 7.47A9.92 9.92 0 0 1 29.95 19h4.003a13.849 13.849 0 0 0-1.386-5.1zM25.012.616l-5.006 8.377L15 .616a21.188 21.188 0 0 1 5.006-.618c1.73 0 3.4.229 5.006.618zM21.746 2.09a17.956 17.956 0 0 0-1.74-.087c-.572 0-1.153.03-1.74.087L20.006 5z"/></svg>