<svg xmlns="http://www.w3.org/2000/svg" viewBox="0 0 100 100" preserveAspectRatio=""><defs><clipPath id="a__hSqCWKBu"><path d="M-.422.031h100v100h-100z"></path></clipPath></defs><g clip-path="url(#a__hSqCWKBu)"><path class="cls-1" fill="#a05ffc" fill-rule="evenodd" d="M76.678.171a7.193 7.193 0 00-2.054-.16H15.152q-3.412 0-4.264.505T9.726 3.259L7.478 21.31v.585q0 1.226 2.4 1.225 6.821 0 7.6-.826a17.122 17.122 0 001.86-2.582 6.53 6.53 0 015.892-3.515h32.41l-12.327 15.55a89.409 89.409 0 00-13.487 22.709q-4.728 11.8-4.734 18.663a9.1 9.1 0 01-.388 3.168 2.725 2.725 0 01-1.784 1.41 5.492 5.492 0 00-2.52 1.306 6.252 6.252 0 00-.426 2.956q0 2.235.543 2.661a4.8 4.8 0 002.558.426h32.953q2.093 0 2.442-.426t.349-3.3q0-2.344-1.628-2.93a6.355 6.355 0 01-3.334-2.395q-.854-1.439-.853-9.318a85.214 85.214 0 017.288-35.3q7.286-16.246 12.56-23.486 2.17-2.875 2.171-4.366V1.231a1.112 1.112 0 00-.345-1.06zm-31.6 77.393h-7.74c.04-.606.06-1.246.06-1.925 0-1.856.528-6.29 4.033-15.038a72.892 72.892 0 014.967-10.037 100.727 100.727 0 00-1.7 18.633 68.244 68.244 0 00.38 8.367zM92.512 5.023a5.155 5.155 0 00-10.306 0v2.481h-.028v1.027q0 1.489-2.171 4.365-5.274 7.244-12.56 23.483c-4.859 10.827-7.288 12.591-7.288 25.3q0 7.88.853 9.319a6.36 6.36 0 003.334 2.4q1.627.585 1.628 2.928c0 1.917-.116 13.02-.348 13.3s-1.048.423-2.448.423H25.525a5 5 0 100 10h37.653c1.932 0 7.075 0 10.447-4.133 2.451-2.93 2.652-16.216 2.652-19.6a12.828 12.828 0 00-5.757-11.053 92.814 92.814 0 01-.06-3.59c0-11.263 2.164-11.793 6.426-21.305 4.559-10.152 8.439-17.457 11.423-21.56a21.888 21.888 0 003.488-6.4 4.749 4.749 0 00.713-2.384v-5z"></path></g></svg>